<?xml version="1.0" standalone="no"?>
<!DOCTYPE svg PUBLIC "-//W3C//DTD SVG 20010904//EN"
 "http://www.w3.org/TR/2001/REC-SVG-20010904/DTD/svg10.dtd">
<svg version="1.0" xmlns="http://www.w3.org/2000/svg"
 width="200.000000pt" height="200.000000pt" viewBox="0 0 200.000000 200.000000"
 preserveAspectRatio="xMidYMid meet">
<metadata>
Created by potrace 1.14, written by Peter Selinger 2001-2017
</metadata>
<g transform="translate(0.000000,200.000000) scale(0.100000,-0.100000)"
fill="#000000" stroke="none">
<path d="M937 1972 c-10 -10 -17 -25 -17 -33 0 -8 -5 -21 -10 -29 -8 -12 -12
-11 -32 7 -42 38 -65 45 -84 26 -23 -24 -15 -153 15 -210 23 -46 75 -83 115
-83 l26 0 1 -87 c0 -49 2 -98 3 -110 4 -31 -3 -29 -51 17 -26 24 -48 37 -58
34 -27 -11 -16 -30 47 -89 l62 -58 1 -86 0 -85 -68 -4 c-76 -4 -62 -18 -112
114 l-23 61 28 59 c18 39 24 63 18 71 -14 18 -33 6 -53 -35 l-18 -37 -10 29
c-8 23 -6 31 6 37 27 16 58 77 59 117 0 47 -38 139 -64 153 -23 12 -48 -4 -48
-32 0 -33 -18 -30 -48 9 -26 31 -34 35 -49 26 -14 -9 -17 -22 -15 -63 l4 -53
-31 16 c-69 36 -90 7 -56 -78 38 -94 89 -136 156 -130 l36 3 31 -81 c18 -45
30 -83 29 -84 -1 -2 -22 6 -46 17 -33 15 -47 17 -57 8 -21 -17 -3 -33 71 -65
36 -15 65 -30 65 -35 0 -4 3 -14 6 -23 4 -11 -5 -18 -38 -26 -83 -23 -90 -53
-23 -113 40 -36 60 -77 37 -77 -5 0 -34 -24 -65 -54 -68 -64 -105 -137 -102
-198 6 -104 46 -278 100 -441 50 -148 83 -209 125 -229 38 -18 214 -40 270
-34 143 17 160 26 199 96 25 44 96 243 105 293 3 16 9 43 15 60 21 66 42 194
42 249 0 96 -21 128 -168 267 -13 13 -9 20 36 63 28 26 51 54 51 61 0 37 -63
67 -142 67 -47 0 -48 10 -5 79 30 51 36 55 102 75 47 15 71 27 73 39 5 25 -18
30 -66 13 -47 -17 -48 -16 -27 25 14 27 19 29 54 23 22 -3 55 -1 75 6 47 15
106 84 130 149 19 52 18 53 -2 73 l-20 21 -35 -22 -35 -21 3 37 c2 21 4 39 6
41 6 7 4 29 -3 45 -14 27 -38 20 -75 -23 -19 -22 -38 -40 -43 -40 -4 0 -10 13
-13 28 -3 16 -14 39 -25 51 -16 20 -22 22 -40 12 -28 -15 -70 -97 -81 -157
-11 -60 3 -109 41 -148 l30 -30 -35 -65 c-20 -36 -42 -79 -50 -95 -14 -26 -16
-27 -25 -10 -5 11 -13 33 -16 51 -8 35 -30 58 -46 48 -15 -10 -12 -35 14 -112
13 -39 22 -74 18 -77 -8 -9 -102 -7 -103 2 0 4 -2 75 -4 157 l-4 151 49 54
c27 30 49 63 50 72 0 33 -22 30 -61 -8 l-39 -38 0 39 c1 38 3 41 49 63 68 31
90 79 88 183 -3 80 -15 109 -48 109 -10 0 -26 -13 -36 -30 -22 -38 -27 -37
-43 0 -11 26 -36 50 -53 50 -2 0 -11 -8 -20 -18z m75 -123 c18 -11 48 3 64 30
14 25 15 23 11 -41 -2 -58 -7 -72 -31 -97 -42 -43 -117 -57 -166 -31 -30 16
-60 83 -60 136 l0 46 34 -30 c45 -39 72 -33 88 19 l11 39 20 -32 c11 -18 24
-36 29 -39z m317 -217 c15 -2 33 6 51 23 l27 26 -2 -36 c-2 -22 4 -44 14 -56
16 -20 19 -21 48 -6 30 16 31 16 26 -3 -3 -11 -22 -39 -43 -62 -35 -40 -41
-43 -91 -44 -43 -1 -61 4 -86 23 -56 43 -63 104 -21 186 l21 41 16 -44 c12
-33 23 -46 40 -48z m-595 -17 c6 -48 -16 -89 -60 -110 -64 -30 -109 -13 -145
57 -11 22 -19 42 -16 44 2 2 18 -1 36 -7 40 -14 61 1 61 44 l0 30 23 -21 c31
-30 55 -28 68 6 9 23 12 24 19 11 5 -9 12 -33 14 -54z m529 -500 c15 -4 27 -9
27 -12 0 -3 -18 -22 -40 -42 -57 -52 -59 -81 -7 -128 71 -66 109 -107 124
-136 17 -34 22 -98 12 -147 -4 -19 -10 -48 -12 -65 -15 -97 -98 -367 -140
-453 -27 -55 -63 -66 -227 -66 -165 -1 -192 9 -224 78 -65 141 -147 453 -148
561 -2 87 14 113 135 223 55 50 53 80 -5 135 -22 21 -37 41 -33 45 3 4 30 9
58 12 75 8 447 5 480 -5z"/>
<path d="M640 761 c0 -15 13 -23 55 -36 161 -46 332 -60 485 -39 116 16 178
33 184 51 12 31 -6 35 -84 17 -14 -3 -71 -11 -127 -18 -155 -19 -251 -12 -416
29 -79 20 -97 19 -97 -4z"/>
</g>
</svg>
