<svg viewBox="0 0 640 690" xmlns="http://www.w3.org/2000/svg" xmlns:xlink="http://www.w3.org/1999/xlink"><defs><path id="a" d="m-9-4 9 4-9 4z" stroke-linecap="round" stroke-linejoin="round"/><marker id="b" markerHeight="20" markerWidth="10" orient="auto" refX="-4" viewBox="-13 -5 14 10"><use stroke="#000" xlink:href="#a"/></marker><marker id="c" markerHeight="20" markerWidth="10" orient="auto" refX="-4" viewBox="-13 -5 14 10"><use fill="#f00" stroke="#f00" xlink:href="#a"/></marker><marker id="d" markerHeight="20" markerWidth="10" orient="auto" refX="-4" viewBox="-13 -5 14 10"><use fill="#008000" stroke="#008000" xlink:href="#a"/></marker><filter id="e" x="-5%" y="-5%"><feGaussianBlur in="SourceAlpha" stdDeviation="2 2"/><feOffset dx="4" dy="4"/><feComponentTransfer result="shadow"><feFuncA intercept="0" slope=".55" type="linear"/></feComponentTransfer><feMerge><feMergeNode/><feMergeNode in="SourceGraphic"/></feMerge></filter></defs><g stroke-width="2"><g font-family="Verdana, sans-serif" font-size="18" text-anchor="middle"><a target="_parent" transform="translate(310 10)" xlink:href="../DOM3-Events.html#glossary-window"><path d="m-70 0h140v40h-140z" fill="#dcdcdc" filter="url(#e)" stroke="#000"/><text y="26">Window</text></a><a target="_parent" transform="translate(310 80)" xlink:href="../DOM3-Events.html#glossary-document"><path d="m-60 0h120v40h-120z" fill="#dcdcdc" filter="url(#e)" stroke="#000"/><text y="26">Document</text></a><g transform="translate(310 150)"><rect fill="#87cefa" filter="url(#e)" height="40" rx="5" stroke="#000" width="100" x="-50"/><text y="26">&lt;html&gt;</text></g><g transform="translate(310 220)"><rect fill="#87cefa" filter="url(#e)" height="40" rx="5" stroke="#000" width="100" x="-50"/><text y="26">&lt;body&gt;</text></g><g transform="translate(310 290)"><rect fill="#87cefa" filter="url(#e)" height="40" rx="5" stroke="#000" width="100" x="-50"/><text y="26">&lt;table&gt;</text></g><g transform="translate(310 360)"><rect fill="#87cefa" filter="url(#e)" height="40" rx="5" stroke="#000" width="100" x="-50"/><text y="26">&lt;tbody&gt;</text></g><g transform="translate(140 450)"><rect fill="#87cefa" filter="url(#e)" height="40" rx="5" stroke="#000" width="100" x="-50"/><text y="26">&lt;tr&gt;</text></g><g transform="translate(500 450)"><rect fill="#87cefa" filter="url(#e)" height="40" rx="5" stroke="#000" width="100" x="-50"/><text y="26">&lt;tr&gt;</text></g><g transform="translate(70 540)"><rect fill="#87cefa" filter="url(#e)" height="40" rx="5" stroke="#000" width="100" x="-50"/><text y="26">&lt;td&gt;</text></g><g transform="translate(70 610)"><ellipse cy="35" fill="#4682b4" filter="url(#e)" rx="64" ry="35" stroke="#000"/><text fill="#fff" font-size="15" text-anchor="middle" y="40">Shady Grove</text></g><g transform="translate(210 540)"><rect fill="#87cefa" filter="url(#e)" height="40" rx="5" stroke="#000" width="100" x="-50"/><text y="26">&lt;td&gt;</text></g><g transform="translate(210 610)"><ellipse cy="35" fill="#4682b4" filter="url(#e)" rx="64" ry="35" stroke="#000"/><text fill="#fff" font-size="15" text-anchor="middle" y="40">Aeolian</text></g><g transform="translate(430 540)"><rect fill="#00f" filter="url(#e)" height="40" rx="5" stroke="#000" width="100" x="-50"/><text fill="#fff" y="26">&lt;td&gt;</text></g><g transform="translate(430 610)"><ellipse cy="35" fill="#4682b4" filter="url(#e)" rx="64" ry="35" stroke="#000"/><text fill="#fff" font-size="15" text-anchor="middle" y="40"><tspan x="0" y="34">Over the River,</tspan> <tspan x="0" y="54">Charlie</tspan></text></g><g transform="translate(570 540)"><rect fill="#87cefa" filter="url(#e)" height="40" rx="5" stroke="#000" width="100" x="-50"/><text y="26">&lt;td&gt;</text></g><g transform="translate(570 610)"><ellipse cy="35" fill="#4682b4" filter="url(#e)" rx="64" ry="35" stroke="#000"/><text fill="#fff" font-size="15" text-anchor="middle" y="40">Dorian</text></g></g><path d="m310 50v23" marker-end="url(#b)" stroke="#000"/><path d="m310 120v23" marker-end="url(#b)" stroke="#000"/><path d="m310 190v23" marker-end="url(#b)" stroke="#000"/><path d="m310 260v23" marker-end="url(#b)" stroke="#000"/><path d="m310 330v23" marker-end="url(#b)" stroke="#000"/><path d="m310 400q0 20-50 20h-100q-20 0-20 23" fill="none" marker-end="url(#b)" stroke="#000"/><path d="m310 400q0 20 70 20h100q20 0 20 23" fill="none" marker-end="url(#b)" stroke="#000"/><path d="m140 490q0 20-20 20h-30q-20 0-20 23" fill="none" marker-end="url(#b)" stroke="#000"/><path d="m140 490q0 20 20 20h30q20 0 20 23" fill="none" marker-end="url(#b)" stroke="#000"/><path d="m500 490q0 20-20 20h-30q-20 0-20 23" fill="none" marker-end="url(#b)" stroke="#000"/><path d="m500 490q0 20 40 20h10q20 0 20 23" fill="none" marker-end="url(#b)" stroke="#000"/><path d="m70 580v23" marker-end="url(#b)" stroke="#000"/><path d="m210 580v23" marker-end="url(#b)" stroke="#000"/><path d="m430 580v23" marker-end="url(#b)" stroke="#000"/><path d="m570 580v23" marker-end="url(#b)" stroke="#000"/></g><g stroke-dasharray="10 5"><a target="_parent" xlink:href="../DOM3-Events.html#glossary-capture-phase"><text fill="#f00" font-family="Verdana, sans-serif" font-size="20" font-weight="bold" text-anchor="middle"><tspan x="150" y="220">Capture</tspan> <tspan x="150" y="240">Phase</tspan> <tspan x="150" y="260">(1)</tspan></text></a><path id="f" d="m235 28c-40-3-40 47 3 57" fill="none" marker-end="url(#c)" stroke="#f00" stroke-linecap="round" stroke-width="3"/><use x="5" xlink:href="#f" y="70"/><use x="10" xlink:href="#f" y="140"/><use x="10" xlink:href="#f" y="210"/><use x="10" xlink:href="#f" y="280"/><path d="m245 378c-40-3-40 95 183 80" fill="none" marker-end="url(#c)" stroke="#f00" stroke-linecap="round" stroke-width="3"/><path d="m428 473c-98-3-98 60-65 75" style="fill:none;stroke:#f00;stroke-width:3;stroke-linecap:round;stroke-dasharray:none;marker-end:url(#c)"/><a target="_parent" xlink:href="../DOM3-Events.html#glossary-target-phase"><text fill="#00f" font-family="Verdana, sans-serif" font-size="20" font-weight="bold" text-anchor="middle"><tspan x="337" y="580">Target</tspan> <tspan x="337" y="600">Phase</tspan> <tspan x="337" y="620">(2)</tspan></text></a><rect fill="none" height="40" rx="5" stroke="#000" stroke-dasharray="none" stroke-width="5" width="100" x="380" y="540"/><a target="_parent" xlink:href="../DOM3-Events.html#glossary-bubbling-phase"><text fill="#008000" font-family="Verdana, sans-serif" font-size="20" font-weight="bold" text-anchor="middle"><tspan x="490" y="320">Bubbling</tspan> <tspan x="490" y="340">Phase</tspan> <tspan x="490" y="360">(3)</tspan></text></a><path d="m492 548c138-65 138-78 70-75" style="fill:none;stroke:#008000;stroke-width:3;stroke-linecap:round;stroke-dasharray:none;marker-end:url(#d)"/><path d="m565 457c40-10 40-59-188-69" fill="none" marker-end="url(#d)" stroke="#008000" stroke-linecap="round" stroke-width="3"/><path d="m375 375c40-3 40-43 0-53" fill="none" marker-end="url(#d)" stroke="#008000" stroke-linecap="round" stroke-width="3"/><use xlink:href="#g" y="-70"/><use xlink:href="#g" y="-140"/><path d="m375 165c50-3 50-43 10-53" fill="none" marker-end="url(#d)" stroke="#008000" stroke-linecap="round" stroke-width="3"/><path id="g" d="m385 95c50-3 50-43 10-53" fill="none" marker-end="url(#d)" stroke="#008000" stroke-linecap="round" stroke-width="3"/></g></svg>